<?xml version="1.0" encoding="utf-8"?>
<!-- Generator: Adobe Illustrator 27.5.0, SVG Export Plug-In . SVG Version: 6.00 Build 0)  -->
<svg version="1.1" id="Layer_1" xmlns="http://www.w3.org/2000/svg" xmlns:xlink="http://www.w3.org/1999/xlink" x="0px" y="0px"
	 viewBox="0 0 301.096 307.388" style="enable-background:new 0 0 301.096 307.388;" xml:space="preserve">
<g>
	<path style="fill:#5E2C00;" d="M195.232,266.013c-1.507-3.667-5.231-5.077-8.755-6.254c-10.101-3.372-17.654-3.761-19.033-16.971
		c-0.659-6.292-1.219-12.696-2.228-18.956c4.127-3.909,6.483-9.975,8.619-16.2c-1.351,0.778-2.725,1.522-4.114,2.236
		c-0.903,2.435-1.803,4.551-2.776,6.033c-0.781,1.202-1.607,2.212-2.46,3.077c-0.292-2.052-0.776-4.19-2.51-5.171
		c-0.406-0.227-0.977,0.516-0.661,0.85c1.022,1.073,1.494,3.175,1.685,5.652c-3.914,3.035-8.383,3.169-12.982,1.884
		c-1.08-1.169-2.354-2.08-3.871-2.62c0.235,0.086,0.489-0.337,0.337-0.51c-0.108-0.12-0.212-0.241-0.318-0.365
		c-0.374,0.094-0.749,0.2-1.123,0.287c0.003,0.014-0.008,0.04-0.008,0.044c0.074,0.54,0.186,0.989,0.306,1.44
		c-0.716-0.321-1.43-0.69-2.144-1.047c-0.61,0.142-1.215,0.285-1.823,0.417c-1.993,0.429-4.004,0.83-6.026,1.191
		c4.369,2.716,8.711,5.404,13.577,6.557c2.014,4.202,2.648,8.839,2.992,13.467c0.442,6.087-0.213,13.079,0.113,19.654
		c-2.457,1.594-6.084,1.799-8.542,2.495c-3.717,1.051-7.336,2.297-10.83,3.951c-2.664,1.254-8.327,3.378-8.745,6.864
		c-0.037,0.311,0.15,0.506,0.379,0.668c1.875,1.314,4.614,1.31,7.354,0.758c-4.013,2.664-9.692,7.654-9.012,12.367
		c0.64,4.433,6.237,0.744,8.283-0.648c4.335-2.949,9.078-5.923,13.974-7.815c0.911-0.351,1.901-0.654,2.907-0.953
		c0.222-0.148,0.455-0.303,0.697-0.457c0.808-0.105,1.602-0.203,2.283-0.321c3.193-0.556,3.24,1.065,2.566,2.922
		c-0.117,0.178-0.229,0.333-0.31,0.459c-0.799,1.201-1.667,2.734-2.424,4.413c-0.249,0.694-0.507,1.382-0.746,2.082
		c-0.048,0.044-0.094,0.086-0.139,0.132c-1.087,3.081-1.58,6.37-0.452,8.906c0.556,0.762,1.489,1.049,2.995,0.355
		c3.702-1.711,6.004-5.125,8.13-8.482c1.239-1.952,2.392-3.943,3.521-5.953c2.158-2.667,4.861-5.223,7.195-7.034
		c2.37-1.047,4.777-1.94,7.066-3.105c2.242-0.347,4.52-0.373,6.753-0.788c3.784-0.207,7.407-0.806,9.455-2.923
		C195.035,267.919,195.628,266.978,195.232,266.013z"/>
	<path style="fill:#FFFFFF;" d="M192.212,266.448c-0.789,2.918-5.891,1.958-8.01,2.056c-2.276,0.098-4.467,0.542-6.564,1.227
		c-2.433,0.716-4.785,1.835-7.094,3.534c-0.306,0.227-0.567,0.507-0.854,0.756c-2.123,1.677-4.022,3.659-5.588,5.927
		c-0.969,1.398-9.172,16.959-12.222,11.756c-0.006-0.016-0.008-0.028-0.014-0.038c0.032-0.078,0.055-0.15,0.05-0.21
		c-0.259-3.414,1.038-5.957,2.597-8.885c0.54-1.011,1.275-2.273,1.641-3.546c0.096-0.247,0.185-0.491,0.288-0.732
		c0.146-0.359,0.296-0.77,0.443-1.175c0.201-0.674,0.337-1.348,0.396-2c-5.151-1.34-11.631,0.732-16.06,2.958
		c-4.503,2.264-8.295,5.837-12.876,7.829c-0.665,0.287-1.625-0.03-1.573-0.907c0.27-4.609,5.464-7.504,9.028-9.644
		c2.326-1.398,4.718-2.611,7.16-3.717c-4.086-1.637-10.591,3.777-15.029,2.088c-0.866-0.333-1.022-1.374-0.251-1.913
		c4.657-3.265,10.163-4.706,15.753-5.919c0.459-0.118,0.913-0.259,1.371-0.369c0.85-0.205,1.69-0.397,2.519-0.592
		c3.937-1.242,7.111-2.977,9.061-5.939c0.243-5.642,0.048-11.313-0.357-16.933c-0.262-3.62-0.833-9.162-2.58-13.906
		c0.425,0.01,0.843,0.024,1.278,0c3.363-0.154,6.084-1.105,8.354-2.615c-0.102,3.616-0.42,7.15-0.347,9.056
		c0.146,3.66,0.118,7.564,0.6,11.3c0.761,2.19,1.697,4.292,2.897,6.214c2.465,3.953,5.582,6.591,9.286,8.637
		c3.995,0.692,7.989,1.35,11.924,2.333C188.652,263.378,192.772,264.387,192.212,266.448z"/>
	<path style="fill:#5E2C00;" d="M251.003,271.515c-1.509-3.676-5.234-5.082-8.758-6.256c-10.104-3.372-17.653-3.761-19.031-16.971
		c-0.658-6.288-1.22-12.692-2.227-18.96c4.126-3.903,6.482-9.97,8.615-16.194c-1.35,0.776-2.719,1.522-4.112,2.235
		c-0.904,2.431-1.804,4.549-2.773,6.033c-0.784,1.203-1.608,2.208-2.462,3.077c-0.293-2.05-0.776-4.19-2.511-5.171
		c-0.404-0.231-0.982,0.517-0.661,0.848c1.022,1.077,1.494,3.177,1.688,5.652c-3.915,3.037-8.384,3.169-12.987,1.881
		c-1.079-1.169-2.353-2.082-3.862-2.613c0.232,0.08,0.483-0.341,0.33-0.516c-0.107-0.122-0.211-0.241-0.317-0.361
		c-0.375,0.094-0.747,0.193-1.123,0.289c0,0.01-0.011,0.034-0.01,0.046c0.076,0.536,0.191,0.985,0.304,1.434
		c-0.715-0.319-1.427-0.694-2.138-1.045c-0.612,0.138-1.22,0.283-1.826,0.415c-1.993,0.427-4.004,0.826-6.026,1.193
		c4.368,2.716,8.71,5.404,13.576,6.557c2.014,4.202,2.652,8.839,2.99,13.465c0.443,6.089-0.21,13.079,0.114,19.654
		c-2.459,1.587-6.08,1.795-8.541,2.493c-3.712,1.053-7.338,2.299-10.829,3.953c-2.667,1.256-8.327,3.375-8.745,6.862
		c-0.039,0.313,0.146,0.504,0.376,0.67c1.877,1.316,4.616,1.304,7.356,0.756c-4.013,2.668-9.693,7.658-9.012,12.37
		c0.639,4.433,6.235,0.744,8.283-0.654c4.336-2.949,9.077-5.917,13.974-7.812c0.914-0.351,1.901-0.658,2.91-0.955
		c0.219-0.143,0.453-0.299,0.694-0.457c0.81-0.102,1.607-0.199,2.285-0.317c3.189-0.558,3.234,1.065,2.563,2.922
		c-0.119,0.177-0.228,0.337-0.309,0.461c-0.796,1.197-1.667,2.73-2.425,4.405c-0.252,0.694-0.507,1.388-0.749,2.086
		c-0.046,0.046-0.089,0.086-0.139,0.132c-1.085,3.081-1.578,6.37-0.451,8.909c0.56,0.758,1.488,1.049,2.995,0.351
		c3.701-1.707,6.001-5.127,8.134-8.482c1.233-1.952,2.389-3.941,3.516-5.951c2.162-2.664,4.863-5.221,7.195-7.034
		c2.37-1.045,4.78-1.944,7.067-3.103c2.242-0.347,4.518-0.379,6.753-0.79c3.782-0.207,7.41-0.804,9.452-2.922
		C250.801,273.418,251.398,272.478,251.003,271.515z"/>
	<path style="fill:#FFFFFF;" d="M247.982,271.948c-0.789,2.913-5.89,1.96-8.013,2.056c-2.272,0.104-4.466,0.541-6.563,1.232
		c-2.433,0.712-4.784,1.831-7.095,3.53c-0.31,0.227-0.564,0.507-0.853,0.752c-2.122,1.679-4.021,3.662-5.587,5.931
		c-0.968,1.396-9.172,16.957-12.221,11.754c-0.004-0.014-0.01-0.026-0.014-0.036c0.031-0.078,0.054-0.146,0.05-0.209
		c-0.26-3.42,1.036-5.955,2.597-8.884c0.538-1.015,1.272-2.273,1.643-3.554c0.092-0.239,0.183-0.482,0.282-0.73
		c0.153-0.357,0.299-0.766,0.444-1.173c0.202-0.676,0.335-1.346,0.401-1.998c-5.156-1.338-11.634,0.734-16.067,2.957
		c-4.501,2.264-8.292,5.833-12.876,7.832c-0.664,0.287-1.622-0.036-1.57-0.908c0.269-4.615,5.464-7.504,9.025-9.646
		c2.323-1.398,4.724-2.61,7.163-3.715c-4.086-1.635-10.591,3.775-15.028,2.084c-0.873-0.331-1.024-1.372-0.252-1.911
		c4.655-3.262,10.162-4.706,15.752-5.917c0.458-0.118,0.913-0.259,1.368-0.369c0.853-0.206,1.694-0.397,2.522-0.592
		c3.937-1.245,7.115-2.978,9.063-5.945c0.242-5.638,0.046-11.308-0.355-16.927c-0.263-3.616-0.836-9.168-2.583-13.906
		c0.423,0.006,0.846,0.018,1.283,0c3.359-0.156,6.085-1.107,8.352-2.616c-0.108,3.616,1.947,24.649,3.146,26.57
		c2.467,3.955,5.585,6.593,9.283,8.637c3.999,0.694,7.996,1.35,11.929,2.331C244.421,268.88,248.539,269.884,247.982,271.948z"/>
	<path style="fill:#5E2C00;" d="M296.411,124.247c-0.485-11.302-10.342-47.264-14.106-53.887c0.575-7.01,0.515-15.801-0.831-22.936
		c-0.833-4.411-5.533-1.659-6.972,0.499c3.255-9.126,5.081-18.501,2.57-27.2c-3.279-11.363-24.47,19.251-24.976,19.899
		c-9.54,12.359-17.891,25.692-33.693,29.942c-11.282,3.031-22.412,4.567-33.999,5.861c-13.91,1.562-29.969,1.498-44.023-3.071
		c-19.091-9.935-29.187-32.732-48.884-40.506c-0.187-0.1-0.393-0.189-0.579-0.285c0.16-0.149,0.301-0.301,0.39-0.441
		c2.809-4.437,6.403-14.423,0.273-17.783c-2.038-1.119-5.096-0.383-7.484,0.676c2.922-9.274-6.416-12.46-15.371-9.106
		c-5.521,2.066-10.152,6.244-13.99,10.576c-4.102,4.627-4.996,9.77-6.859,14.997c-2.041-5.989-7.45-6.192-12.451-0.933
		c-7.349,7.726-8.42,27.029-0.153,34.226c-0.128,0.241-0.251,0.491-0.388,0.722L34.871,65.5c0.26-0.494-0.46-0.475-0.703-0.149
		l-0.092,0.13c-0.047,0.056-0.078,0.14-0.096,0.225C21.606,69.098,7.994,84.292,4.562,95.579c-0.063,0.194-0.081,0.507,0.089,0.664
		c0.217,0.195,0.434,0.391,0.651,0.588c0.348,0.315,0.831,0.179,1.196-0.046c1.772-1.069,3.562-2.002,5.375-2.852
		c11.839-1.552,24.52,8.28,36.44,4.72c-7.914,9.084-22.649,20.076-19.325,33.771c2.583,10.673,15.692,3.969,22.086-1.761
		c-1.562,4.114-6.046,12.815-3.555,15.146c0.145,0.134,0.368,0.144,0.542,0.06c2.726-1.35,4.26-3.031,6.391-5.271
		c0.53-0.56,0.913-0.989,1.232-1.364c-0.296,0.463-0.624,1.023-1.001,1.763c-0.958,1.897-1.93,4.372-2.735,6.328
		c-3.968,9.59-5.262,20.348-3.849,30.586c0.389,2.808,1.481,11.944,6.453,10.009c2.812-1.097,4.578-3.983,5.712-7.227
		c-0.163,6.428,0.758,13.623,5.343,14.54c0.572,0.114,1.258-0.471,1.496-0.935c0.67-1.31,1.099-2.662,1.388-4.04
		c2.972,9.714,9.323,21.235,19.078,21.839c2.737,0.168,4.634-0.499,5.971-1.663c4.899,6.242,11.345,9.975,18.871,12.71
		c8.029,2.914,15.679,6.719,23.8,9.323c5.278,0.141,10.622,1.986,15.535,3.504c0.768,0.239,1.532,0.455,2.296,0.678
		c4.287,0.766,8.547,1.37,12.796,1.747c2.436-0.082,4.857,0.056,7.294,0.223c0.094-0.03,0.189-0.058,0.306-0.058
		c3.234,0.032,6.452,0.138,9.675,0.032c5.736-0.375,11.521-1.191,17.445-2.607c2.643-0.63,5.25-1.37,7.833-2.174
		c6.373-2.535,19.652-8.162,19.873-7.961c7.769-3.867,15.176-8.47,22.122-13.751c1.668-1.268,3.446-2.616,5.281-4.032
		c3.879-2.349,7.597-4.864,10.976-7.602c16.751-13.565,30.468-38.743,28.732-61.697C296.675,133.814,296.607,128.87,296.411,124.247
		z"/>
	<path style="fill:#FFFFFF;" d="M32.648,50.367c-0.207-3.598,0.167-7.147,1.122-10.651c0.121-0.539,0.279-1.059,0.461-1.562
		c0.452-1.885,1.165-3.632,2.283-5.066c1.598-2.034,4.916-4.208,7.593-2.8c2.254,1.187,2.958,3.466,3.865,5.648
		c0.339-0.343,0.596-0.758,0.628-1.073c0.848-7.794,3.958-13.782,9.512-19.289c2.551-2.331,5.406-4.194,8.564-5.592
		c4.503-2.2,16.581-4.86,13.056,7.851c-0.415,0.367-0.798,0.768-1.164,1.181c-0.185,0.523-0.364,1.039-0.514,1.566
		c4.112-3.179,10.692-6.3,12.894-0.532c1.561,4.082-0.908,10.268-4.821,10.235c-0.03,0.044-0.063,0.086-0.097,0.13
		c-10.356-3.314-22.465,1.528-31.114,6.868c-4.73,2.924-8.473,7.042-11.845,11.397c-2.404,3.105-3.75,6.629-5.111,10.093
		c-0.552,1.177-1.055,2.383-1.507,3.612c-0.197,0.443-0.404,0.877-0.615,1.31C34.338,59.287,33.144,55.353,32.648,50.367z"/>
	<path style="fill:#FFFFFF;" d="M67.032,82.234c3.157,5.542,6.464,8.278,6.815,15.346c-0.119,3.219-0.713,6.326-1.792,9.335
		l-0.455,0.245c-0.84,3.344-2.581,6.41-6.209,7.239c-3.392,0.78-4.008-3.787-4.264-6.844c-0.368,0.156-0.775,0.499-0.862,0.656
		c-1.831,3.536-2.917,7.345-4.422,11.032c0.637-8.38-1.45-13.691-4.878-21.608c0.325-0.156,0.653-0.275,0.98-0.457
		c2.746-1.533,4.046-11.71,2.393-16.842c-0.306-1.601-1.038-3.231-1.873-4.537c-3.217-7.848-8.272-10.853-13.931-10.755
		c1.39-3.56,2.323-7.173,3.912-10.677c0.831-1.823,1.899-3.608,2.836-5.42c0.497-0.674,0.962-1.366,1.487-2.026
		c3.511-4.409,8.116-7.738,13.166-10.163c8.765-2.214,17.905,0.622,24.092,7.584c4.442,4.992,5.7,10.855,5.373,17.342
		c-0.595,11.956-10.695,17.328-21.052,18.609C67.538,80.393,66.571,81.42,67.032,82.234z"/>
	<path style="fill:#FFFFFF;" d="M10.705,92.427c-0.195,0.114-0.35,0.191-0.523,0.287c-0.589,0.209-1.163,0.457-1.711,0.766
		c-2.759,0.788,0.642-3.963,1.942-6.322c3.622-6.567,9.072-12.554,15.283-16.688c11.235-7.484,20.002-1.621,25.896,7.251
		c1.595,10.223-13.969,7.245-20.786,8.268C24.32,86.96,16.362,89.112,10.705,92.427z"/>
	<path style="fill:#FFFFFF;" d="M31.613,95.536c-4.294-1.218-9.812-3.241-14.972-3.584c4.324-1.604,8.793-2.772,13.499-3.729
		c6.688-1.364,13.605-0.223,20.292-1.643c1.394-0.297,2.359-0.868,3.001-1.609c-0.285,3.384-1.111,6.876-1.285,7.814
		C50.72,100.507,36.358,96.882,31.613,95.536z"/>
	<path style="fill:#FFFFFF;" d="M41.024,134.38c-9.707,2.704-10.195-6.555-8.617-12.091c2.627-9.21,12.114-15.859,17.043-24.001
		c0.122-0.044,0.248-0.068,0.373-0.118c0.698,3.574,2.113,6.755,3.087,10.271c1.534,5.524,0.644,11.683-0.588,17.344
		C49.537,129.568,45.776,132.44,41.024,134.38z"/>
	<path style="fill:#FFFFFF;" d="M283.135,171.294c1.52-1.286,2.857-2.698,4.068-4.192c-2.315,6.302-5.517,12.185-9.482,17.52
		c-3.711,4.513-7.269,9.836-11.713,13.84c-0.755,0.602-22.764,16.86-28.215,20.154c-6.599,3.991-13.47,7.63-20.951,9.415
		c-6.866,2.585-13.948,4.673-21.264,6.214c-6.149,1.29-12.317,1.777-18.472,1.687c-0.153-0.137-6.045-0.411-8.907-0.624
		c0.054,0.04,0.11,0.076,0.171,0.118c-0.98-0.102-1.952-0.257-2.931-0.377c-0.645-0.07-1.284-0.133-1.938-0.219
		c-0.355-0.046-0.701-0.116-1.057-0.165c-1.027-0.152-2.059-0.309-3.087-0.489c-1.766-0.287-3.529-0.614-5.286-0.969
		c-0.233-0.048-0.465-0.09-0.699-0.136c-4.897-1.009-9.764-2.21-14.562-3.584c-15.117-4.324-29.977-9.65-42.809-18.956
		c-0.533-0.383-0.716-1.109-0.226-1.619c-0.267-0.07-0.523-0.146-0.787-0.213c1.488-2.708,1.479-6.667,0.961-10.586
		c-0.167-1.253-0.317-2.307-0.455-3.209c0.895,2.7,2.495,5.562,4.974,4.896c5.391-1.45,5.275-21.211,5.248-24.474
		c-0.007-1.065-1.576-0.042-1.648,0.642c-0.378,3.492-0.831,6.954-1.387,10.424c0.126-0.808-2.139,14.307-4.714,9.596
		c-1.488-2.718-1.714-6.186-3.676-8.629c-0.35-0.437-1.231,0.305-1.186,0.73c0.609,5.456,4.273,25.565-8.181,19.785
		c-9.464-4.391-14.366-16.776-15.841-26.309c-0.183-1.201-2.31,0.307-2.312,1.161c-0.007,0.826-0.511,11.7-2.753,6.623
		c-1.728-3.913-2.303-7.634-2.53-11.948c-0.018-0.363-0.052-0.656-0.097-0.921c0.397-1.913,0.639-3.753,0.808-5.223
		c0.067-0.606-0.969-0.11-1.041,0.287c-0.16,0.882-0.357,2.188-0.523,3.731c-1.39,0.126-3.978,6.302-4.429,7.856
		c-2.817,3.671-4.537-4.419-4.764-5.423c-3.245-14.538,0.899-29.637,7.826-42.43c0.597-1.109-0.84-0.885-1.338-0.347
		c-2.225,2.425-10.519,10.077-6.89,1.137c1.279-3.145,2.635-6.328,3.571-9.613c1.68-2.7,2.98-5.321,4.15-8.336
		c0.762-1.966,0.938-10.903,2.01-4.896c0.532,2.973,3.803,4.944,6.439,2.941c5.597-4.256,7.478-9.174,8.888-16.038
		c1.702-8.272-2.088-12.139-5.978-17.965c6.283-0.662,12.02-1.53,16.428-7.309c4.482-5.867,7.87-13.607,6.23-21.205
		C90.36,42.428,80.078,34.11,69.199,33.408c0.901-0.233,1.808-0.463,2.713-0.644c8.907-1.787,16.941,1.689,24.145,6.431
		c5.241,3.885,9.895,8.246,14.518,13.08c0.32,0.393,0.618,0.808,0.932,1.199c4.075,3.925,8.061,7.953,12.343,11.607
		c6.014,5.125,12.354,9.76,19.266,13.286c4.136,1.286,8.279,2.168,12.166,2.646c21.206,2.617,44.973-1.986,65.311-7.556
		c17.871-4.896,27.311-24.085,37.661-38.051c1.488-1.958,3.008-3.893,4.555-5.803c0.772-0.929,1.549-1.858,2.324-2.792
		c0.582-1.095,1.324-1.811,2.196-2.204c1.206-1.549,2.677-2.822,4.414-3.388c2.725-0.893,4.264,2.349,4.206,4.497
		c-0.146,5.213-1.789,10.366-3.787,15.374c-0.166,0.706-0.335,1.402-0.501,2.096c-0.466,1.94-1.036,3.841-1.667,5.725
		c-1.609,6.852-3.245,13.701-4.803,20.565c1.271-2.834,2.617-5.752,4.004-8.791c0.986-1.681,1.953-3.319,2.753-4.876
		c0.07-0.132,5.939-9.638,6.387-4.613c0.292,3.267-0.129,6.731-0.007,10.015c0.184,5.038-0.112,10.023-0.802,14.935
		c-0.099,6.134-0.37,12.263-0.995,18.351c2.285-6.075,4.053-12.317,5.113-18.674c0.803,3.737,1.712,7.427,2.839,11.11
		c3.161,10.33,5.601,20.489,6.684,31.27c1.687,16.818,2.361,38.52-9.176,52.25C281.153,171.46,282.313,171.986,283.135,171.294z"/>
	<path style="opacity:0.4;fill:#C17D45;" d="M93.163,191.55c-0.717,5.917-2.581,11.751-7.523,13.924
		c-1.359,0.598-2.652,0.704-3.889,0.507c0.997,0.73,2.054,1.376,3.176,1.895c10.07,4.669,9.602-7.572,8.733-15.316
		C93.492,192.222,93.322,191.887,93.163,191.55z"/>
	<path style="fill:#5E2C00;" d="M255.338,136.462c5.365,0.207,10.362-0.64,13.198-4.396c3.318-4.395-3.283-9.459-6.14-11.569
		c-8.56-6.306-16.589-10.344-25.835-13.33c1.585,0.096,3.168,0.265,4.739,0.634c2.438,0.578,4.561,0.419,6.068-1.591
		c0.387-0.525,0.665-1.139,0.284-1.737c-0.036-0.05-0.084-0.096-0.115-0.152c-10.891-5.395-21.794-6.485-34.047-6.847
		c-6.32-0.187-13.393-0.845-19.62,0.539c-0.696,0.156-1.376,0.345-2.052,0.549c10.673-0.229,20.985-0.539,31.783,1.639
		c6.168,1.238,12.899,4.35,19.219,4.814c-5.35-0.393-11.859,0.287-17.119-0.79c-0.323-0.072-0.743,0.166-1.076,0.503
		c1.976,1.083,3.976,2.11,6.02,3.043c6.978,1.97,13.735,4.641,19.923,8.484c2.407,1.498,21.466,14.572,12.016,16.367
		c-2.97,0.562-5.986,0.516-9.012,0.231c-3.123,0.325-6.249,0.64-9.373,0.941c1.832,1.434,3.739,2.754,5.697,3.998
		c4.707,2.393,9.319,4.954,14.288,6.872c3.828,1.472,8.571,4.561,4.718,8.504c-4.694,4.8-13.574,5.584-19.777,6.852
		c-0.383,0.08-0.794,0.165-1.2,0.253c4.076,0.391,8.398,0.762,11.519,2.954c0.561,0.397,0.95,0.857,1.254,1.346
		c1.273,1.254,1.031,3.007,0.15,4.848c-1.423,3.917-5.473,8.103-7.443,9.622c-0.523,0.407-1.061,0.774-1.596,1.157
		c-3.753,3.067-8.126,5.444-12.718,7.331c-0.041,0.018-0.083,0.032-0.125,0.048c-0.582,0.239-1.16,0.481-1.747,0.704
		c-6.734,2.708-13.815,4.292-21.029,4.832c-15.804,1.522-31.361,1.627-45.432-5.775c1.886,2.816,4.113,5.4,5.524,8.5
		c0.295,0.648,0.05,1.286-0.626,1.538c-6.582,2.437-14.928-5.387-19.58-9.12c-7.14-5.734-14.216-12.961-18.169-21.438
		c0.104,0.973,0.189,1.951,0.241,2.932c0.007,0.1,0.489,9.281-0.766,8.276c-2.214-1.755-4.008-4.511-5.469-6.902
		c-2.37-3.881-3.703-7.712-4.561-11.561c-1.197-3.51-2.273-7.104-3.098-10.741c-0.075,2.405,0.199,5.031,0.347,6.268
		c0.491,4.182,1.454,8.404,3.002,12.335c2.465,6.26,5.987,11.395,11.266,15.185c0.801-0.323,1.543-0.904,2.153-1.663
		c0.883-1.093,1.34-2.583,1.516-4.276c6.206,10.797,16.436,19.237,28.388,23.393c2.929,1.015,7.204,0.786,8.506-2.599
		c0.786-2.05-0.033-3.566-1.101-5.259c9.963,5.458,22.264,6.533,33.847,4.483c6.224-0.413,12.448-1.529,18.118-3.237
		c12.01-3.622,38.038-15.617,35.773-32.016c-0.077-0.233-0.227-0.401-0.447-0.512c-0.665-0.19-1.344-0.341-2.018-0.515
		c4.132-1.232,8.276-3.329,10.227-6.916C277.206,147.295,265.97,140.846,255.338,136.462z"/>
	<g>
		<path style="fill:#5E2C00;" d="M73.184,58.913c0,4.708-2.851,8.519-6.369,8.519c-3.521,0-6.375-3.811-6.375-8.519
			c0-4.693,2.854-8.51,6.375-8.51C70.333,50.403,73.184,54.22,73.184,58.913z"/>
	</g>
	<g>
		<path style="fill:#FFFFFF;" d="M66.793,55.602c0,1.43-0.872,2.59-1.936,2.59c-1.072,0-1.939-1.161-1.939-2.59
			c0-1.428,0.867-2.587,1.939-2.587C65.921,53.016,66.793,54.174,66.793,55.602z"/>
	</g>
</g>
</svg>
