<?xml version="1.0" encoding="utf-8"?>
<!-- Generator: Adobe Illustrator 27.5.0, SVG Export Plug-In . SVG Version: 6.00 Build 0)  -->
<svg version="1.1" xmlns="http://www.w3.org/2000/svg" xmlns:xlink="http://www.w3.org/1999/xlink" x="0px" y="0px"
	 viewBox="0 0 500 500" style="enable-background:new 0 0 500 500;" xml:space="preserve">
<g id="BACKGROUND">
	<rect style="fill:#FFFFFF;" width="500" height="500"/>
</g>
<g id="OBJECTS">
	<g>
		<path style="fill:#F2E9DB;" d="M433.664,260.469c-3.436,50.904-29.536,99.858-69.888,131.079
			c-40.351,31.221-94.291,44.195-144.426,34.741c-50.136-9.455-95.645-41.183-121.854-84.957
			C73.84,301.824,66.042,254.149,69.81,208.254c3.109-37.869,14.425-76.235,39.247-105.003
			c23.855-27.646,58.708-44.425,94.676-50.719c57.256-10.018,118.837,6.291,162.809,44.307
			C410.514,134.854,438.137,194.187,433.664,260.469z"/>
		<g>
			<path style="fill:#F2DEBF;" d="M120.311,371.491c13.525,14.419,29.41,26.635,46.791,36.072
				c15.016-14.463,33.557-25.346,53.024-33.064c25.863-10.254,53.47-15.294,80.997-19.335c33.218-4.877,67.501-8.3,100.512-3.825
				c18.429-26.775,29.84-58.422,32.03-90.87c0.337-5,0.47-9.955,0.449-14.871c-52.066,19.008-111.861,11.444-166.823,23.452
				C207.412,282.134,153.521,320.065,120.311,371.491z"/>
			<path style="fill:#F2DEBF;" d="M327.409,172.718c26.196,24.95,65.935,34.161,100.701,24.752
				c-10.067-40.214-32.149-75.198-61.568-100.631c-18.016-15.576-38.991-27.501-61.411-35.471
				C287.448,98.225,297.854,144.57,327.409,172.718z"/>
			<path style="fill:#F2DEBF;" d="M204.838,210.311c24.737-19.412,40.928-48.308,48.919-78.719
				c6.883-26.192,8.047-53.539,6.403-80.628c-18.765-2.146-37.823-1.687-56.427,1.568c-11.389,1.993-22.664,5.041-33.515,9.148
				c-1.578,61.317-31.54,121.671-80.184,159.217c-6.947,5.362-14.253,10.299-21.033,15.848c0.402,15.784,2.258,31.534,5.737,46.859
				c13.116-14.556,31.226-25.35,49.345-33.533C151.515,237.682,181.159,228.893,204.838,210.311z"/>
		</g>
	</g>
	<ellipse style="opacity:0.15;fill:#2D3038;" cx="299.97" cy="447.754" rx="73.631" ry="16.544"/>
	<g>
		<path style="fill:#2D3038;" d="M410.994,209.446c0.116-0.078,0.228-0.166,0.336-0.264c1.518-1.37,1.305-3.773,0.929-5.783
			c-4.569-24.454-15.069-47.634-29.425-67.959c2.739-0.84,5.057-3.02,5.981-5.736c0.576-1.691,0.651-3.566,1.541-5.116
			c0.768-1.338,2.069-2.298,2.879-3.611c1.273-2.066,1.138-4.78,0.139-6.991c-1-2.21-2.757-3.99-4.628-5.534
			c-1.398-1.153-2.928-2.262-3.744-3.878c-0.986-1.951-0.739-4.216-0.24-6.393c6.835-1.401,13.905-1.44,20.516,0.154
			c-1.44-6.235-5.761-11.659-11.327-14.71c3.955-3.849,7.901-7.853,10.247-12.835c0.753-1.596,1.337-3.387,0.946-5.108
			c-0.687-3.024-4.236-4.664-7.317-4.311s-5.775,2.16-8.333,3.914c-1.602-5.786-4.126-10.759-7.669-14.86
			c-0.678-0.785-1.461-1.578-2.479-1.777c-1.266-0.249-2.563,0.535-3.272,1.614c-0.709,1.08-0.94,2.398-1.08,3.681
			c-0.141,1.284-0.209,2.594-0.649,3.808c-1.748-2.483-2.928-4.738-4.109-6.992c-0.392-0.751-0.798-1.517-1.419-2.093
			c-0.621-0.575-1.513-0.934-2.327-0.703c-0.983,0.279-1.555,1.284-1.949,2.226c-0.984,2.346-1.527,4.877-1.591,7.421
			c-1.85-3.144-4.079-5.677-6.787-7.507c-1.406-0.951-3.175-1.734-4.762-1.132c-1.448,0.549-2.288,2.133-2.434,3.674
			c-0.147,1.542,0.264,3.074,0.628,4.579c0.365,1.505,0.685,3.077,0.36,4.591c-3.495-1.249-6.976-2.322-10.42-1.752
			c-3.443,0.571-6.793,3.347-6.754,6.838c0.033,3.001,2.527,5.499,5.312,6.62c-15.035,9.308-26.61,24.146-31.832,41.054
			c-5.011,16.229-4.572,34.502-13.858,48.724c-1.966,3.011-4.34,5.78-5.875,9.031c-1.4,2.963-2.013,6.525-0.808,9.522
			c-17.802-0.581-35.705,1.946-52.639,7.468c-8.429,2.748-16.615,6.226-25.123,8.72c-8.508,2.494-17.486,3.994-26.25,2.656
			c-8.284-10.911-19.214-19.689-31.107-26.413c-11.893-6.724-24.779-11.499-37.743-15.813c-12.049-4.01-24.222-7.65-36.495-10.911
			c-2.811-0.747-6.353-1.25-8.143,1.043c-1.714,2.196-0.534,5.433,1.081,7.704c0.69,0.97,1.452,1.887,2.275,2.746
			c-1.054,2.281-1.419,4.923-1.078,7.425c0.577,4.231,2.939,8.062,5.943,11.097c0.327,0.33,0.662,0.652,1.003,0.967
			c-2.268,2.595-2.492,6.727-0.985,9.897c0.607,1.278,1.437,2.415,2.419,3.42c-2.066,2.44-2.786,6.01-2.022,9.164
			c0.685,2.824,2.4,5.297,4.611,7.211c-2.509,4.154-1.466,9.793,1.329,13.807c0.125,0.179,0.252,0.355,0.382,0.529
			c-1.797,2.809-2.276,6.489-1.473,9.773c1.047,4.283,3.981,7.915,7.462,10.62c1.483,1.153,3.065,2.157,4.703,3.075
			c-2.438,1.399-4.164,4.107-4.457,6.948c-0.387,3.764,1.453,7.545,4.282,10.058c2.829,2.512,6.538,3.866,10.278,4.436
			c9.871,1.503,20.401-2.488,27.477-10.563c-1.304,3.647-2.19,7.442-2.635,11.289c-0.14,1.211-0.211,2.533,0.468,3.545
			c0.916,1.366,2.918,1.617,4.447,1.013c1.529-0.605,2.695-1.856,3.806-3.069c-2.402,4.614-2.868,10.197-1.265,15.144
			c1.603,4.947,5.256,9.195,9.906,11.523c2.608,1.306,5.528,2.043,7.864,3.789c2.683,2.006,4.317,5.166,5.112,8.419
			c0.794,3.253,1.226,6.582,1.536,10.243c0.801,9.458,4.723,18.488,11.311,25.322c6.588,6.834,14.757,11.887,22.646,17.167
			c7.888,5.28,15.727,11.002,21.222,18.743c2.813,3.962,4.954,8.379,7.888,12.253c2.934,3.874,6.913,7.293,12.084,8.254
			c0.541,9.59,1.082,19.18,1.64,29.073c-5.421,2.115-9.843,6.651-11.82,12.123c-0.395,1.093-0.699,2.273-0.46,3.409
			c0.239,1.138,1.166,2.202,2.381,2.601c-0.435,1.968-0.283,4.062,0.432,5.946c1.194-1.309,2.388-2.62,4.288-3.917
			c1.84,0.351,3.842-0.906,4.66-1.982c0.794,1.692,2.587,2.723,4.405,3.155c1.819,0.432,3.712,0.369,5.578,0.478
			c5.313,0.31,10.534,2.067,14.954,5.032c1.623,1.09,3.197,2.365,5.095,2.834c1.898,0.469,4.264-0.185,5.198-2.051
			c3.181-0.259,6.448,0.782,8.894,2.833c0.282-3.623-1.83-7.317-5.158-8.687c0.394-1.574-0.459-3.255-1.723-4.271
			c-0.705-0.565-1.515-0.962-2.368-1.267c4.534-0.336,9.143,0.325,13.393,1.944c2.175,0.829,4.297,1.913,6.61,2.189
			c2.311,0.276,4.95-0.486,6.214-2.229c2.825-0.402,5.752-0.07,7.824,1.415c-0.297-1.656-0.981-3.233-2.05-4.575
			c0.772-0.11,1.537-0.258,2.288-0.47c2.013-0.567,3.951-1.628,5.195-3.308c0.458-0.619,0.806-1.295,1.077-2.007
			c4.75-0.527,9.757,0.561,13.8,3.114c2.284,1.443,4.305,3.327,6.769,4.434c2.465,1.108,5.656,1.249,7.76-0.457
			c2.432,0.153,4.77,1.438,6.281,3.335c1.027-2.832,0.48-6.179-1.614-8.35c0.521-1.212,1.025-2.602,1.01-3.882
			c1.857,0.276,3.637,1.053,5.361,1.835c2.11,0.958,4.27,1.957,6.582,2.096c2.312,0.141,4.848-0.781,5.642-2.331
			c2.508-0.832,5.303-0.765,7.799,0.364c-1.075-2.866-3.609-5.139-6.622-5.681c-0.228-3.908-4.159-6.671-8.011-7.364
			c-3.853-0.691-7.808,0.063-11.721-0.048c-7.764-0.221-15.125-3.881-21.064-8.886c-5.94-5.006-10.629-11.308-15.106-17.654
			c-2.931-4.159-5.815-8.392-7.881-13.041c-1.975-4.449-3.181-9.333-2.807-14.176c8.577-2.771,15.99-9.2,19.799-17.375
			c12.927-0.858,25.742-4.638,37.067-10.935c22.905-12.738,39.801-34.93,48.685-59.586
			C412.681,260.455,414.169,234.533,410.994,209.446z M306.02,416.478c-0.663,4.417-1.419,9.057-4.193,12.559
			c-1.434,1.81-3.329,3.202-4.874,4.921c-0.724,0.805-1.378,1.729-1.83,2.718l0.002,0.001c-0.551-0.238-1.127-0.417-1.701-0.53
			c-2.613-0.512-5.321-0.087-7.969-0.372c-4.185-0.452-7.976-2.643-12.069-3.622c-3.644-0.872-7.444-0.768-11.159-1.238
			c-3.717-0.472-7.575-1.656-10.129-5.206c-1.583-8.54-2.574-17.191-2.971-26.169c2.461-0.735,4.201-2.963,5.253-5.306
			c1.051-2.343,1.577-4.891,2.584-7.254c3.247-7.625,10.888-12.243,16.336-18.518c4.792,7.807,11.299,14.481,17.353,21.401
			C297.442,397.623,303.908,406.134,306.02,416.478z"/>
		<path style="fill:none;stroke:#FFFFFF;stroke-linecap:round;stroke-linejoin:round;stroke-miterlimit:10;" d="M268.999,445.095
			c-1.335-0.304-2.675-0.616-3.885-1.244c-1.44-0.746-2.705-2.038-2.951-3.641"/>
		<path style="fill:none;stroke:#FFFFFF;stroke-linecap:round;stroke-linejoin:round;stroke-miterlimit:10;" d="M302.377,443.127
			c-0.985-0.812-2.168-1.471-3.547-1.921c-0.063-1.357-0.789-2.513-1.832-3.387"/>
		<path style="fill:none;stroke:#FFFFFF;stroke-linecap:round;stroke-linejoin:round;stroke-miterlimit:10;" d="M312.913,437.012
			c0.237-1.086,0.369-2.211,0.492-3.31"/>
		<path style="fill:none;stroke:#FFFFFF;stroke-linecap:round;stroke-linejoin:round;stroke-miterlimit:10;" d="M345.734,434.936
			c-1.128-1.492-3.275-1.59-5.123-1.875c-2.56-0.396-5.021-1.412-7.113-2.939c-1.776-1.295-3.695-3.059-5.832-2.544"/>
		<g>
			<path style="fill:none;stroke:#FFFFFF;stroke-linecap:round;stroke-linejoin:round;stroke-miterlimit:10;" d="M237.429,215.871
				c-18.093,13.124-31.371,32.741-36.788,53.947c-9.539,10.327-14.283,24.913-12.645,38.876c0.335,2.849,1.334,6.16,4.067,7.031
				c2.053,0.652,4.228-0.386,6.095-1.461c9.857-5.677,18.62-13.247,25.668-22.176"/>
			<path style="fill:none;stroke:#FFFFFF;stroke-linecap:round;stroke-linejoin:round;stroke-miterlimit:10;" d="M207.174,308.317
				c-0.314,1.647-0.22,3.27,0.805,4.548c1.587,1.98,4.568,1.995,7.073,1.589c13.248-2.15,24.342-10.881,34.785-19.312"/>
			<path style="fill:none;stroke:#FFFFFF;stroke-linecap:round;stroke-linejoin:round;stroke-miterlimit:10;" d="M216.248,314.231
				c-0.861,1.911-0.083,4.724,1.762,6.045c2.462,1.762,5.774,1.603,8.776,1.217c19.842-2.549,38.247-11.659,55.292-22.131"/>
			<path style="fill:none;stroke:#FFFFFF;stroke-linecap:round;stroke-linejoin:round;stroke-miterlimit:10;" d="M240.482,318.692
				c17.665,2.333,36.002-1.429,51.438-10.301"/>
			<path style="fill:none;stroke:#FFFFFF;stroke-linecap:round;stroke-linejoin:round;stroke-miterlimit:10;" d="M293.715,299.362
				c-3.078,2.362-3.454,5.487-2.842,7.355c0.612,1.868,2.548,3.053,4.492,3.335c1.945,0.284,3.914-0.172,5.817-0.664
				c13.147-3.391,26.034-8.759,36.343-17.596c10.309-8.837,17.834-21.464,18.534-35.025"/>
		</g>
		<path style="fill:none;stroke:#FFFFFF;stroke-linecap:round;stroke-linejoin:round;stroke-miterlimit:10;" d="M100.675,249.423
			c-1.731-0.809-3.469-1.622-5.166-2.504"/>
		<path style="fill:none;stroke:#FFFFFF;stroke-linecap:round;stroke-linejoin:round;stroke-miterlimit:10;" d="M97.956,233.609
			c-4.304-1.304-10.579-6.349-13.318-9.297"/>
		<path style="fill:none;stroke:#FFFFFF;stroke-linecap:round;stroke-linejoin:round;stroke-miterlimit:10;" d="M95.363,213.596
			c-3.934-0.529-7.88-1.479-11.297-3.499c-0.267-0.158-0.53-0.322-0.789-0.494"/>
		<path style="fill:none;stroke:#FFFFFF;stroke-linecap:round;stroke-linejoin:round;stroke-miterlimit:10;" d="M96.044,199.594
			c-3.68-1.219-7.496-2.062-11.038-3.637c-1.709-0.76-3.371-1.721-4.821-2.907"/>
		<path style="fill:none;stroke:#FFFFFF;stroke-linecap:round;stroke-linejoin:round;stroke-miterlimit:10;" d="M92.739,186.913
			c-3.419-0.783-11.106-4.914-13.432-6.777"/>
		<path style="fill:none;stroke:#FFFFFF;stroke-linecap:round;stroke-linejoin:round;stroke-miterlimit:10;" d="M89.739,169.304
			c-3.129-1.034-10.432-3.652-16.58-8.744"/>
		<path style="fill:none;stroke:#FFFFFF;stroke-linecap:round;stroke-linejoin:round;stroke-miterlimit:10;" d="M286.998,183.931
			c2.101,2.314,5.904,3.272,8.785,1.582c-0.518,1.735-1.044,3.519-0.906,5.326c0.138,1.806,1.086,3.667,2.758,4.364
			c1.41,0.589,3.071,0.243,4.389-0.533c1.316-0.776,2.356-1.934,3.473-2.553c-0.764,1.102-1.551,2.263-1.714,3.595
			c-0.163,1.331,0.529,2.871,1.831,3.188c0.686,0.167,1.42-0.028,2.031-0.382c0.61-0.354,1.118-0.856,1.938-1.304
			c-0.335,1.221-1.106,2.271-1.603,3.435c-0.497,1.165-0.674,2.623,0.115,3.612c0.537,0.674,1.415,0.986,2.269,1.093
			c1.678,0.211,3.386-0.251,4.897-1.011c1.511-0.759,2.855-1.807,4.188-2.848"/>
		<path style="fill:none;stroke:#FFFFFF;stroke-linecap:round;stroke-linejoin:round;stroke-miterlimit:10;" d="M355.365,77.944
			c-2.257-1.99-5.387-2.627-8.38-2.932c-2.027-0.206-4.095-0.302-6.086-0.688"/>
		<path style="fill:none;stroke:#FFFFFF;stroke-linecap:round;stroke-linejoin:round;stroke-miterlimit:10;" d="M392.469,82.88
			c-1.829-0.833-3.768-1.413-5.767-1.692c-0.187,2.425-1.699,4.709-3.86,5.827c-1.369,0.709-2.964,0.977-4.21,1.885
			c-1.444,1.053-2.197,2.805-2.69,4.523c-0.493,1.718-0.804,3.514-1.652,5.088c-0.848,1.573-2.405,2.927-4.442,2.902
			c-2.318,0.81-4.789-0.96-6.108-3.033c-1.319-2.072-2.012-4.535-3.598-6.411c-1.653-1.954-4.174-3.14-5.45-5.36
			c-1.534-2.667-0.769-6.215,1.179-8.596c1.949-2.382,4.852-3.779,7.777-4.734c4.009-1.307,8.349-1.915,12.454-0.954
			c4.105,0.961,7.933,3.669,9.542,7.566"/>
		<path style="fill:none;stroke:#FFFFFF;stroke-linecap:round;stroke-linejoin:round;stroke-miterlimit:10;" d="M376.432,105.275
			c1.949-1.766,3.304-4.178,4.289-6.101c0.69-0.199,1.385-0.383,2.082-0.554"/>
		<path style="fill:none;stroke:#FFFFFF;stroke-linecap:round;stroke-linejoin:round;stroke-miterlimit:10;" d="M380.923,94.648
			c5.038-1.236,10.434-0.889,15.305,0.881"/>
		<path style="fill:none;stroke:#FFFFFF;stroke-linecap:round;stroke-linejoin:round;stroke-miterlimit:10;" d="M380.699,135.811
			c-2.726,0.132-5.506-0.981-7.366-2.99c-2.152-2.324-3.014-5.76-2.254-8.833c0.45-1.819,1.43-3.573,1.253-5.438
			c-0.197-2.063-1.747-3.695-2.773-5.496c-2.001-3.517-1.939-8.103,0.107-11.584"/>
		<path style="fill:none;stroke:#FFFFFF;stroke-linecap:round;stroke-linejoin:round;stroke-miterlimit:10;" d="M372.764,85.776
			c-0.56-0.976-1.177-1.935-1.997-2.704c-0.82-0.77-1.867-1.343-2.989-1.419c-1.122-0.075-2.312,0.412-2.91,1.365
			c-0.598,0.952-0.458,2.356,0.427,3.05c0.567,0.443,1.32,0.554,2.037,0.604C369.047,86.794,370.781,86.655,372.764,85.776z"/>
		<path style="fill:none;stroke:#FFFFFF;stroke-linecap:round;stroke-linejoin:round;stroke-miterlimit:10;" d="M409.046,209.972
			c-1.637-0.062-3.402-1.14-4.446-2.52c-1.575-2.081-2.348-4.739-4.09-6.049c-0.433,2.808-1.099,5.785-3.157,7.745
			c-0.815,0.778-1.893,1.371-3.018,1.297c-1.111-0.074-2.105-0.799-2.729-1.722s-0.925-2.026-1.178-3.11
			c-0.121,1.588-0.25,3.212-0.887,4.672c-0.637,1.46-1.889,2.753-3.464,2.996c-1.244,0.192-2.519-0.296-3.521-1.06
			c-1.001-0.763-1.772-1.783-3.037-2.754c-0.372,1.679-0.899,3.351-1.843,4.79c-0.942,1.438-2.341,2.634-4.009,3.057
			c-0.903,0.228-2.053,0.118-2.487-0.705c-0.181-0.344-0.199-0.749-0.191-1.138c0.029-1.491,0.365-2.975,0.98-4.332"/>
		<g>
			<path style="fill:none;stroke:#FFFFFF;stroke-linecap:round;stroke-linejoin:round;stroke-miterlimit:10;" d="M274.819,366.584
				c3.175-4.25,5.12-9.278,7.842-13.83c2.723-4.553,6.579-8.855,11.73-10.126"/>
			<path style="fill:none;stroke:#FFFFFF;stroke-linecap:round;stroke-linejoin:round;stroke-miterlimit:10;" d="M315.328,354.898
				c-10.48,0.322-20.963-1.295-30.715-5.065"/>
		</g>
	</g>
</g>
</svg>
